<?xml version="1.0" encoding="utf-8"?>
<!-- Generator: Adobe Illustrator 24.1.2, SVG Export Plug-In . SVG Version: 6.00 Build 0)  -->
<svg version="1.1" id="Capa_1" xmlns="http://www.w3.org/2000/svg" xmlns:xlink="http://www.w3.org/1999/xlink" x="0px" y="0px"
	 viewBox="0 0 204 204" style="enable-background:new 0 0 204 204;" xml:space="preserve">
<style type="text/css">
	.st0{display:none;fill:url(#SVGID_1_);}
	.st1{display:none;fill:#FFFFFF;}
	.st2{fill:url(#SVGID_2_);}
	.st3{fill:#FFFFFF;}
	.st4{font-family:'Impact';}
	.st5{font-size:14px;}
	.st6{font-size:40px;}
</style>
<linearGradient id="SVGID_1_" gradientUnits="userSpaceOnUse" x1="-12.4729" y1="102.3102" x2="228.0859" y2="101.4267" gradientTransform="matrix(1 0 0 -1 0 203.8898)">
	<stop  offset="0" style="stop-color:#00E93C"/>
	<stop  offset="1" style="stop-color:#2A6375"/>
</linearGradient>
<path class="st0" d="M187.6,69.9c5.5-2,11.6,0.7,13.1,6.3c5.5,21.2,4.1,43.8-4.3,64.3c-9.7,23.8-28,43-51.3,53.9
	c-23.3,10.9-49.7,12.6-74.2,4.8c-24.5-7.8-45.1-24.5-57.7-46.9C0.6,130-3.2,103.7,2.7,78.7c5.9-25,20.9-46.8,42.2-61.2
	S92.1-2.7,117.4,1.2c21.9,3.3,42,13.7,57.4,29.4c4.1,4.2,3.3,10.8-1.3,14.5c-4.6,3.6-11.1,2.8-15.3-1.2c-12-11.6-27.3-19.2-44-21.8
	C94.1,18.9,73.6,23.6,56.7,35C39.8,46.4,27.9,63.7,23.2,83.5c-4.7,19.8-1.7,40.7,8.4,58.4c10,17.7,26.4,31,45.8,37.2
	c19.4,6.2,40.4,4.8,58.9-3.8c18.4-8.6,33-23.9,40.7-42.7c6.4-15.6,7.7-32.7,3.9-48.9C179.5,78,182.2,71.9,187.6,69.9z"/>
<path class="st1" d="M69.5,89.4c0,4.6,3.2,8.4,8,8.4c0.6,0,1-0.1,1.3-0.2l-5.4,7.7h7.6l5.5-8.8c1.4-2.3,2.3-4.9,2.3-7.2
	c0-5.3-4.1-9.2-9.6-9.2C73.7,80.1,69.5,84,69.5,89.4z M75.8,89.2c0-1.8,1.5-3.2,3.3-3.2s3.3,1.4,3.3,3.3s-1.4,3.2-3.3,3.2
	S75.8,91,75.8,89.2z M97.8,95.2c0.5-0.9,1.6-1.5,2.9-1.5c1.8,0,3.2,1.3,3.2,3.1s-1.3,3.2-3.2,3.2c-1.9,0-3-1.3-3.1-2.4h-6.3
	c0.1,5,3.8,8.3,9.5,8.3c5.4,0,9.5-4,9.5-9.4c0-4.5-3.2-8.2-7.9-8.2c-1.5,0-2.9,0.4-4.1,1.2l0.5-3.2h9.8v-5.6H93.8L91.9,94L97.8,95.2
	z M124.8,86.3c0-3.4-2.8-6.1-6.3-6.1c-3.6,0-6.3,2.7-6.3,6.1s2.8,6.1,6.3,6.1C122,92.4,124.8,89.7,124.8,86.3z M120.5,86.3
	c0,1.3-0.9,2.1-2.1,2.1c-1.2,0-2.1-0.9-2.1-2.1s0.9-2.1,2.1-2.1C119.6,84.2,120.5,85,120.5,86.3z M138.3,80.5h-5.5l-18.4,24.7h5.5
	L138.3,80.5z M127.9,99.5c0,3.4,2.8,6.1,6.3,6.1c3.6,0,6.3-2.7,6.3-6.1c0-3.4-2.8-6.1-6.3-6.1C130.7,93.4,127.9,96.1,127.9,99.5z
	 M132.1,99.5c0-1.3,0.9-2.1,2.1-2.1s2.1,0.9,2.1,2.1c0,1.3-0.9,2.1-2.1,2.1S132.1,100.8,132.1,99.5z"/>
<linearGradient id="SVGID_2_" gradientUnits="userSpaceOnUse" x1="6.963841e-04" y1="101.6254" x2="203.9992" y2="102.3746">
	<stop  offset="0" style="stop-color:#00E93C"/>
	<stop  offset="1" style="stop-color:#2A6375"/>
</linearGradient>
<path class="st2" d="M102,0.2C45.7,0.2,0,45.8,0,102c0,56.2,45.7,101.8,102,101.8S204,158.2,204,102C204,45.8,158.3,0.2,102,0.2z
	 M102,182.7c-44.7,0-80.9-36.3-80.9-81.1S57.3,20.5,102,20.5s80.9,36.3,80.9,81.1S146.7,182.7,102,182.7z"/>
<text transform="matrix(1 0 0 1 81.6998 72.5917)"><tspan x="0" y="0" class="st3 st4 st5">Más de</tspan><tspan x="-15.4" y="48" class="st3 st4 st6">50 K</tspan></text>
</svg>
