<?xml version="1.0" encoding="utf-8"?>
<!-- Generator: Adobe Illustrator 24.1.2, SVG Export Plug-In . SVG Version: 6.00 Build 0)  -->
<svg version="1.1" id="Capa_1" xmlns="http://www.w3.org/2000/svg" xmlns:xlink="http://www.w3.org/1999/xlink" x="0px" y="0px"
	 viewBox="0 0 204 204" style="enable-background:new 0 0 204 204;" xml:space="preserve">
<style type="text/css">
	.st0{fill:url(#SVGID_1_);}
	.st1{display:none;fill:#FFFFFF;}
	.st2{fill:#FFFFFF;}
	.st3{font-family:'Impact';}
	.st4{font-size:48px;}
	.st5{fill:url(#SVGID_2_);}
	.st6{fill:url(#SVGID_3_);}
	.st7{fill:url(#SVGID_4_);}
	.st8{fill:url(#SVGID_5_);}
	.st9{fill:url(#SVGID_6_);}
</style>
<linearGradient id="SVGID_1_" gradientUnits="userSpaceOnUse" x1="-12.4729" y1="102.3102" x2="228.0859" y2="101.4267" gradientTransform="matrix(1 0 0 -1 0 203.8898)">
	<stop  offset="0" style="stop-color:#00E93C"/>
	<stop  offset="0.9997" style="stop-color:#2A6375"/>
</linearGradient>
<path class="st0" d="M187.6,69.9c5.5-2,11.6,0.7,13.1,6.3c5.5,21.2,4.1,43.8-4.3,64.3c-9.7,23.8-28,43-51.3,53.9
	c-23.3,10.9-49.7,12.6-74.2,4.8c-24.5-7.8-45.1-24.5-57.7-46.9C0.6,130-3.2,103.7,2.7,78.7c5.9-25,20.9-46.8,42.2-61.2
	S92.1-2.7,117.4,1.2c21.9,3.3,42,13.7,57.4,29.4c4.1,4.2,3.3,10.8-1.3,14.5c-4.6,3.6-11.1,2.8-15.3-1.2c-12-11.6-27.3-19.2-44-21.8
	C94.1,18.9,73.6,23.6,56.7,35C39.8,46.4,27.9,63.7,23.2,83.5c-4.7,19.8-1.7,40.7,8.4,58.4c10,17.7,26.4,31,45.8,37.2
	c19.4,6.2,40.4,4.8,58.9-3.8c18.4-8.6,33-23.9,40.7-42.7c6.4-15.6,7.7-32.7,3.9-48.9C179.5,78,182.2,71.9,187.6,69.9z"/>
<path class="st1" d="M75.7,89.8c-4.6,0-8.5,2.8-8.5,7.2c0,2.1,1.1,3.7,2.8,4.7c-1.9,1-3.9,3-3.9,5.9c0,5,4.6,8,9.6,8
	c5,0,9.6-3,9.6-8c0-2.9-2-4.9-3.9-5.9c1.7-1,2.8-2.6,2.8-4.7C84.2,92.6,80.3,89.8,75.7,89.8z M78.8,107.2c0,1.7-1.3,2.9-3.1,2.9
	s-3.1-1.2-3.1-2.9c0-1.6,1.3-2.9,3.1-2.9S78.8,105.6,78.8,107.2z M75.7,95.1c1.4,0,2.6,1,2.6,2.4s-1.1,2.4-2.6,2.4
	c-1.5,0-2.6-1-2.6-2.4S74.2,95.1,75.7,95.1z M109.5,102.7c0-6.8-3.9-12.9-10.9-12.9c-7.1,0-11,6-11,12.9s3.9,12.9,11,12.9
	C105.6,115.5,109.5,109.5,109.5,102.7z M102.8,102.7c0,3.3-1.3,6.6-4.2,6.6c-3,0-4.3-3.3-4.3-6.6s1.3-6.6,4.3-6.6
	C101.5,96,102.8,99.3,102.8,102.7z M124.4,96c0-3.4-2.8-6.1-6.3-6.1c-3.6,0-6.3,2.7-6.3,6.1s2.8,6.1,6.3,6.1
	C121.6,102.1,124.4,99.4,124.4,96z M120.1,96c0,1.3-0.9,2.1-2.1,2.1c-1.2,0-2.1-0.9-2.1-2.1s0.9-2.1,2.1-2.1
	C119.2,93.9,120.1,94.8,120.1,96z M137.9,90.3h-5.5L114,115h5.5L137.9,90.3z M127.5,109.2c0,3.4,2.8,6.1,6.3,6.1s6.3-2.7,6.3-6.1
	c0-3.4-2.8-6.1-6.3-6.1S127.5,105.8,127.5,109.2z M131.8,109.2c0-1.3,0.9-2.1,2.1-2.1s2.1,0.9,2.1,2.1c0,1.3-0.9,2.1-2.1,2.1
	S131.8,110.5,131.8,109.2z"/>
<text transform="matrix(1 0 0 1 74.1814 101.9999)" class="st2 st3 st4">4.9</text>
<g>
	<linearGradient id="SVGID_2_" gradientUnits="userSpaceOnUse" x1="36.1746" y1="133.6307" x2="56.9097" y2="133.6307">
		<stop  offset="0" style="stop-color:#BF8500"/>
		<stop  offset="1" style="stop-color:#CEFF3F"/>
	</linearGradient>
	<polygon class="st5" points="56.9,131 51.8,136.2 53.2,143.3 46.7,140.1 40.4,143.6 41.5,136.4 36.2,131.4 43.3,130.3 46.4,123.7 
		49.7,130.1 	"/>
	<linearGradient id="SVGID_3_" gradientUnits="userSpaceOnUse" x1="150.452" y1="131.7408" x2="171.1871" y2="131.7408">
		<stop  offset="0" style="stop-color:#BF8500"/>
		<stop  offset="1" style="stop-color:#CEFF3F"/>
	</linearGradient>
	<polygon class="st6" points="171.2,129.2 166.1,134.3 167.5,141.4 161,138.2 154.6,141.7 155.7,134.5 150.5,129.5 157.6,128.4 
		160.7,121.8 164,128.2 	"/>
	<linearGradient id="SVGID_4_" gradientUnits="userSpaceOnUse" x1="122.1966" y1="131.7408" x2="142.9317" y2="131.7408">
		<stop  offset="0" style="stop-color:#BF8500"/>
		<stop  offset="1" style="stop-color:#CEFF3F"/>
	</linearGradient>
	<polygon class="st7" points="142.9,129.2 137.8,134.3 139.2,141.4 132.7,138.2 126.4,141.7 127.5,134.5 122.2,129.5 129.3,128.4 
		132.4,121.8 135.7,128.2 	"/>
	<linearGradient id="SVGID_5_" gradientUnits="userSpaceOnUse" x1="94.1115" y1="131.7408" x2="114.8466" y2="131.7408">
		<stop  offset="0" style="stop-color:#BF8500"/>
		<stop  offset="1" style="stop-color:#CEFF3F"/>
	</linearGradient>
	<polygon class="st8" points="114.8,129.2 109.8,134.3 111.1,141.4 104.6,138.2 98.3,141.7 99.4,134.5 94.1,129.5 101.3,128.4 
		104.3,121.8 107.7,128.2 	"/>
	<linearGradient id="SVGID_6_" gradientUnits="userSpaceOnUse" x1="65.3456" y1="132.5919" x2="86.0807" y2="132.5919">
		<stop  offset="0" style="stop-color:#BF8500"/>
		<stop  offset="1" style="stop-color:#CEFF3F"/>
	</linearGradient>
	<polygon class="st9" points="86.1,130 81,135.2 82.4,142.3 75.9,139 69.5,142.5 70.6,135.4 65.3,130.4 72.5,129.2 75.6,122.7 
		78.9,129.1 	"/>
</g>
</svg>
